<?xml version="1.0" encoding="utf-8" standalone="no"?>
<!DOCTYPE svg PUBLIC "-//W3C//DTD SVG 1.1//EN"
  "http://www.w3.org/Graphics/SVG/1.1/DTD/svg11.dtd">
<svg xmlns:xlink="http://www.w3.org/1999/xlink" width="527.76pt" height="372.753pt" viewBox="0 0 527.76 372.753" xmlns="http://www.w3.org/2000/svg" version="1.1">
 <metadata>
  <rdf:RDF xmlns:dc="http://purl.org/dc/elements/1.1/" xmlns:cc="http://creativecommons.org/ns#" xmlns:rdf="http://www.w3.org/1999/02/22-rdf-syntax-ns#">
   <cc:Work>
    <dc:type rdf:resource="http://purl.org/dc/dcmitype/StillImage"/>
    <dc:date>2023-07-11T19:26:29.761444</dc:date>
    <dc:format>image/svg+xml</dc:format>
    <dc:creator>
     <cc:Agent>
      <dc:title>Matplotlib v3.7.1, https://matplotlib.org/</dc:title>
     </cc:Agent>
    </dc:creator>
   </cc:Work>
  </rdf:RDF>
 </metadata>
 <defs>
  <style type="text/css">*{stroke-linejoin: round; stroke-linecap: butt}</style>
 </defs>
 <g id="figure_1">
  <g id="patch_1">
   <path d="M 0 372.753 
L 527.76 372.753 
L 527.76 0 
L 0 0 
z
" style="fill: #ffffff"/>
  </g>
  <g id="axes_1">
   <g id="patch_2">
    <path d="M 74.16 312.12 
L 520.56 312.12 
L 520.56 34.92 
L 74.16 34.92 
z
" style="fill: #ffffff"/>
   </g>
   <g id="matplotlib.axis_1">
    <g id="xtick_1">
     <g id="line2d_1">
      <defs>
       <path id="m766749bf6e" d="M 0 0 
L 0 3.5 
" style="stroke: #000000; stroke-width: 0.8"/>
      </defs>
      <g>
       <use xlink:href="#m766749bf6e" x="122.681739" y="312.12" style="stroke: #000000; stroke-width: 0.8"/>
      </g>
     </g>
     <g id="text_1">
      <!-- 0.0 -->
      <g transform="translate(109.959239 331.2775) scale(0.16 -0.16)">
       <defs>
        <path id="DejaVuSans-30" d="M 2034 4250 
Q 1547 4250 1301 3770 
Q 1056 3291 1056 2328 
Q 1056 1369 1301 889 
Q 1547 409 2034 409 
Q 2525 409 2770 889 
Q 3016 1369 3016 2328 
Q 3016 3291 2770 3770 
Q 2525 4250 2034 4250 
z
M 2034 4750 
Q 2819 4750 3233 4129 
Q 3647 3509 3647 2328 
Q 3647 1150 3233 529 
Q 2819 -91 2034 -91 
Q 1250 -91 836 529 
Q 422 1150 422 2328 
Q 422 3509 836 4129 
Q 1250 4750 2034 4750 
z
" transform="scale(0.015625)"/>
        <path id="DejaVuSans-2e" d="M 684 794 
L 1344 794 
L 1344 0 
L 684 0 
L 684 794 
z
" transform="scale(0.015625)"/>
       </defs>
       <use xlink:href="#DejaVuSans-30"/>
       <use xlink:href="#DejaVuSans-2e" x="63.623047"/>
       <use xlink:href="#DejaVuSans-30" x="95.410156"/>
      </g>
     </g>
    </g>
    <g id="xtick_2">
     <g id="line2d_2">
      <g>
       <use xlink:href="#m766749bf6e" x="161.49913" y="312.12" style="stroke: #000000; stroke-width: 0.8"/>
      </g>
     </g>
     <g id="text_2">
      <!-- 0.1 -->
      <g transform="translate(148.77663 331.2775) scale(0.16 -0.16)">
       <defs>
        <path id="DejaVuSans-31" d="M 794 531 
L 1825 531 
L 1825 4091 
L 703 3866 
L 703 4441 
L 1819 4666 
L 2450 4666 
L 2450 531 
L 3481 531 
L 3481 0 
L 794 0 
L 794 531 
z
" transform="scale(0.015625)"/>
       </defs>
       <use xlink:href="#DejaVuSans-30"/>
       <use xlink:href="#DejaVuSans-2e" x="63.623047"/>
       <use xlink:href="#DejaVuSans-31" x="95.410156"/>
      </g>
     </g>
    </g>
    <g id="xtick_3">
     <g id="line2d_3">
      <g>
       <use xlink:href="#m766749bf6e" x="200.316522" y="312.12" style="stroke: #000000; stroke-width: 0.8"/>
      </g>
     </g>
     <g id="text_3">
      <!-- 0.2 -->
      <g transform="translate(187.594022 331.2775) scale(0.16 -0.16)">
       <defs>
        <path id="DejaVuSans-32" d="M 1228 531 
L 3431 531 
L 3431 0 
L 469 0 
L 469 531 
Q 828 903 1448 1529 
Q 2069 2156 2228 2338 
Q 2531 2678 2651 2914 
Q 2772 3150 2772 3378 
Q 2772 3750 2511 3984 
Q 2250 4219 1831 4219 
Q 1534 4219 1204 4116 
Q 875 4013 500 3803 
L 500 4441 
Q 881 4594 1212 4672 
Q 1544 4750 1819 4750 
Q 2544 4750 2975 4387 
Q 3406 4025 3406 3419 
Q 3406 3131 3298 2873 
Q 3191 2616 2906 2266 
Q 2828 2175 2409 1742 
Q 1991 1309 1228 531 
z
" transform="scale(0.015625)"/>
       </defs>
       <use xlink:href="#DejaVuSans-30"/>
       <use xlink:href="#DejaVuSans-2e" x="63.623047"/>
       <use xlink:href="#DejaVuSans-32" x="95.410156"/>
      </g>
     </g>
    </g>
    <g id="xtick_4">
     <g id="line2d_4">
      <g>
       <use xlink:href="#m766749bf6e" x="239.133913" y="312.12" style="stroke: #000000; stroke-width: 0.8"/>
      </g>
     </g>
     <g id="text_4">
      <!-- 0.3 -->
      <g transform="translate(226.411413 331.2775) scale(0.16 -0.16)">
       <defs>
        <path id="DejaVuSans-33" d="M 2597 2516 
Q 3050 2419 3304 2112 
Q 3559 1806 3559 1356 
Q 3559 666 3084 287 
Q 2609 -91 1734 -91 
Q 1441 -91 1130 -33 
Q 819 25 488 141 
L 488 750 
Q 750 597 1062 519 
Q 1375 441 1716 441 
Q 2309 441 2620 675 
Q 2931 909 2931 1356 
Q 2931 1769 2642 2001 
Q 2353 2234 1838 2234 
L 1294 2234 
L 1294 2753 
L 1863 2753 
Q 2328 2753 2575 2939 
Q 2822 3125 2822 3475 
Q 2822 3834 2567 4026 
Q 2313 4219 1838 4219 
Q 1578 4219 1281 4162 
Q 984 4106 628 3988 
L 628 4550 
Q 988 4650 1302 4700 
Q 1616 4750 1894 4750 
Q 2613 4750 3031 4423 
Q 3450 4097 3450 3541 
Q 3450 3153 3228 2886 
Q 3006 2619 2597 2516 
z
" transform="scale(0.015625)"/>
       </defs>
       <use xlink:href="#DejaVuSans-30"/>
       <use xlink:href="#DejaVuSans-2e" x="63.623047"/>
       <use xlink:href="#DejaVuSans-33" x="95.410156"/>
      </g>
     </g>
    </g>
    <g id="xtick_5">
     <g id="line2d_5">
      <g>
       <use xlink:href="#m766749bf6e" x="277.951304" y="312.12" style="stroke: #000000; stroke-width: 0.8"/>
      </g>
     </g>
     <g id="text_5">
      <!-- 0.4 -->
      <g transform="translate(265.228804 331.2775) scale(0.16 -0.16)">
       <defs>
        <path id="DejaVuSans-34" d="M 2419 4116 
L 825 1625 
L 2419 1625 
L 2419 4116 
z
M 2253 4666 
L 3047 4666 
L 3047 1625 
L 3713 1625 
L 3713 1100 
L 3047 1100 
L 3047 0 
L 2419 0 
L 2419 1100 
L 313 1100 
L 313 1709 
L 2253 4666 
z
" transform="scale(0.015625)"/>
       </defs>
       <use xlink:href="#DejaVuSans-30"/>
       <use xlink:href="#DejaVuSans-2e" x="63.623047"/>
       <use xlink:href="#DejaVuSans-34" x="95.410156"/>
      </g>
     </g>
    </g>
    <g id="xtick_6">
     <g id="line2d_6">
      <g>
       <use xlink:href="#m766749bf6e" x="316.768696" y="312.12" style="stroke: #000000; stroke-width: 0.8"/>
      </g>
     </g>
     <g id="text_6">
      <!-- 0.5 -->
      <g transform="translate(304.046196 331.2775) scale(0.16 -0.16)">
       <defs>
        <path id="DejaVuSans-35" d="M 691 4666 
L 3169 4666 
L 3169 4134 
L 1269 4134 
L 1269 2991 
Q 1406 3038 1543 3061 
Q 1681 3084 1819 3084 
Q 2600 3084 3056 2656 
Q 3513 2228 3513 1497 
Q 3513 744 3044 326 
Q 2575 -91 1722 -91 
Q 1428 -91 1123 -41 
Q 819 9 494 109 
L 494 744 
Q 775 591 1075 516 
Q 1375 441 1709 441 
Q 2250 441 2565 725 
Q 2881 1009 2881 1497 
Q 2881 1984 2565 2268 
Q 2250 2553 1709 2553 
Q 1456 2553 1204 2497 
Q 953 2441 691 2322 
L 691 4666 
z
" transform="scale(0.015625)"/>
       </defs>
       <use xlink:href="#DejaVuSans-30"/>
       <use xlink:href="#DejaVuSans-2e" x="63.623047"/>
       <use xlink:href="#DejaVuSans-35" x="95.410156"/>
      </g>
     </g>
    </g>
    <g id="xtick_7">
     <g id="line2d_7">
      <g>
       <use xlink:href="#m766749bf6e" x="355.586087" y="312.12" style="stroke: #000000; stroke-width: 0.8"/>
      </g>
     </g>
     <g id="text_7">
      <!-- 0.6 -->
      <g transform="translate(342.863587 331.2775) scale(0.16 -0.16)">
       <defs>
        <path id="DejaVuSans-36" d="M 2113 2584 
Q 1688 2584 1439 2293 
Q 1191 2003 1191 1497 
Q 1191 994 1439 701 
Q 1688 409 2113 409 
Q 2538 409 2786 701 
Q 3034 994 3034 1497 
Q 3034 2003 2786 2293 
Q 2538 2584 2113 2584 
z
M 3366 4563 
L 3366 3988 
Q 3128 4100 2886 4159 
Q 2644 4219 2406 4219 
Q 1781 4219 1451 3797 
Q 1122 3375 1075 2522 
Q 1259 2794 1537 2939 
Q 1816 3084 2150 3084 
Q 2853 3084 3261 2657 
Q 3669 2231 3669 1497 
Q 3669 778 3244 343 
Q 2819 -91 2113 -91 
Q 1303 -91 875 529 
Q 447 1150 447 2328 
Q 447 3434 972 4092 
Q 1497 4750 2381 4750 
Q 2619 4750 2861 4703 
Q 3103 4656 3366 4563 
z
" transform="scale(0.015625)"/>
       </defs>
       <use xlink:href="#DejaVuSans-30"/>
       <use xlink:href="#DejaVuSans-2e" x="63.623047"/>
       <use xlink:href="#DejaVuSans-36" x="95.410156"/>
      </g>
     </g>
    </g>
    <g id="xtick_8">
     <g id="line2d_8">
      <g>
       <use xlink:href="#m766749bf6e" x="394.403478" y="312.12" style="stroke: #000000; stroke-width: 0.8"/>
      </g>
     </g>
     <g id="text_8">
      <!-- 0.7 -->
      <g transform="translate(381.680978 331.2775) scale(0.16 -0.16)">
       <defs>
        <path id="DejaVuSans-37" d="M 525 4666 
L 3525 4666 
L 3525 4397 
L 1831 0 
L 1172 0 
L 2766 4134 
L 525 4134 
L 525 4666 
z
" transform="scale(0.015625)"/>
       </defs>
       <use xlink:href="#DejaVuSans-30"/>
       <use xlink:href="#DejaVuSans-2e" x="63.623047"/>
       <use xlink:href="#DejaVuSans-37" x="95.410156"/>
      </g>
     </g>
    </g>
    <g id="xtick_9">
     <g id="line2d_9">
      <g>
       <use xlink:href="#m766749bf6e" x="433.22087" y="312.12" style="stroke: #000000; stroke-width: 0.8"/>
      </g>
     </g>
     <g id="text_9">
      <!-- 0.8 -->
      <g transform="translate(420.49837 331.2775) scale(0.16 -0.16)">
       <defs>
        <path id="DejaVuSans-38" d="M 2034 2216 
Q 1584 2216 1326 1975 
Q 1069 1734 1069 1313 
Q 1069 891 1326 650 
Q 1584 409 2034 409 
Q 2484 409 2743 651 
Q 3003 894 3003 1313 
Q 3003 1734 2745 1975 
Q 2488 2216 2034 2216 
z
M 1403 2484 
Q 997 2584 770 2862 
Q 544 3141 544 3541 
Q 544 4100 942 4425 
Q 1341 4750 2034 4750 
Q 2731 4750 3128 4425 
Q 3525 4100 3525 3541 
Q 3525 3141 3298 2862 
Q 3072 2584 2669 2484 
Q 3125 2378 3379 2068 
Q 3634 1759 3634 1313 
Q 3634 634 3220 271 
Q 2806 -91 2034 -91 
Q 1263 -91 848 271 
Q 434 634 434 1313 
Q 434 1759 690 2068 
Q 947 2378 1403 2484 
z
M 1172 3481 
Q 1172 3119 1398 2916 
Q 1625 2713 2034 2713 
Q 2441 2713 2670 2916 
Q 2900 3119 2900 3481 
Q 2900 3844 2670 4047 
Q 2441 4250 2034 4250 
Q 1625 4250 1398 4047 
Q 1172 3844 1172 3481 
z
" transform="scale(0.015625)"/>
       </defs>
       <use xlink:href="#DejaVuSans-30"/>
       <use xlink:href="#DejaVuSans-2e" x="63.623047"/>
       <use xlink:href="#DejaVuSans-38" x="95.410156"/>
      </g>
     </g>
    </g>
    <g id="xtick_10">
     <g id="line2d_10">
      <g>
       <use xlink:href="#m766749bf6e" x="472.038261" y="312.12" style="stroke: #000000; stroke-width: 0.8"/>
      </g>
     </g>
     <g id="text_10">
      <!-- 0.9 -->
      <g transform="translate(459.315761 331.2775) scale(0.16 -0.16)">
       <defs>
        <path id="DejaVuSans-39" d="M 703 97 
L 703 672 
Q 941 559 1184 500 
Q 1428 441 1663 441 
Q 2288 441 2617 861 
Q 2947 1281 2994 2138 
Q 2813 1869 2534 1725 
Q 2256 1581 1919 1581 
Q 1219 1581 811 2004 
Q 403 2428 403 3163 
Q 403 3881 828 4315 
Q 1253 4750 1959 4750 
Q 2769 4750 3195 4129 
Q 3622 3509 3622 2328 
Q 3622 1225 3098 567 
Q 2575 -91 1691 -91 
Q 1453 -91 1209 -44 
Q 966 3 703 97 
z
M 1959 2075 
Q 2384 2075 2632 2365 
Q 2881 2656 2881 3163 
Q 2881 3666 2632 3958 
Q 2384 4250 1959 4250 
Q 1534 4250 1286 3958 
Q 1038 3666 1038 3163 
Q 1038 2656 1286 2365 
Q 1534 2075 1959 2075 
z
" transform="scale(0.015625)"/>
       </defs>
       <use xlink:href="#DejaVuSans-30"/>
       <use xlink:href="#DejaVuSans-2e" x="63.623047"/>
       <use xlink:href="#DejaVuSans-39" x="95.410156"/>
      </g>
     </g>
    </g>
   </g>
   <g id="matplotlib.axis_2">
    <g id="ytick_1">
     <g id="line2d_11">
      <defs>
       <path id="m72655a5f08" d="M 0 0 
L -3.5 0 
" style="stroke: #000000; stroke-width: 0.8"/>
      </defs>
      <g>
       <use xlink:href="#m72655a5f08" x="74.16" y="261.312875" style="stroke: #000000; stroke-width: 0.8"/>
      </g>
     </g>
     <g id="text_11">
      <!-- 0.6 -->
      <g transform="translate(41.715 267.391625) scale(0.16 -0.16)">
       <use xlink:href="#DejaVuSans-30"/>
       <use xlink:href="#DejaVuSans-2e" x="63.623047"/>
       <use xlink:href="#DejaVuSans-36" x="95.410156"/>
      </g>
     </g>
    </g>
    <g id="ytick_2">
     <g id="line2d_12">
      <g>
       <use xlink:href="#m72655a5f08" x="74.16" y="196.537881" style="stroke: #000000; stroke-width: 0.8"/>
      </g>
     </g>
     <g id="text_12">
      <!-- 0.7 -->
      <g transform="translate(41.715 202.616631) scale(0.16 -0.16)">
       <use xlink:href="#DejaVuSans-30"/>
       <use xlink:href="#DejaVuSans-2e" x="63.623047"/>
       <use xlink:href="#DejaVuSans-37" x="95.410156"/>
      </g>
     </g>
    </g>
    <g id="ytick_3">
     <g id="line2d_13">
      <g>
       <use xlink:href="#m72655a5f08" x="74.16" y="131.762888" style="stroke: #000000; stroke-width: 0.8"/>
      </g>
     </g>
     <g id="text_13">
      <!-- 0.8 -->
      <g transform="translate(41.715 137.841638) scale(0.16 -0.16)">
       <use xlink:href="#DejaVuSans-30"/>
       <use xlink:href="#DejaVuSans-2e" x="63.623047"/>
       <use xlink:href="#DejaVuSans-38" x="95.410156"/>
      </g>
     </g>
    </g>
    <g id="ytick_4">
     <g id="line2d_14">
      <g>
       <use xlink:href="#m72655a5f08" x="74.16" y="66.987894" style="stroke: #000000; stroke-width: 0.8"/>
      </g>
     </g>
     <g id="text_14">
      <!-- 0.9 -->
      <g transform="translate(41.715 73.066644) scale(0.16 -0.16)">
       <use xlink:href="#DejaVuSans-30"/>
       <use xlink:href="#DejaVuSans-2e" x="63.623047"/>
       <use xlink:href="#DejaVuSans-39" x="95.410156"/>
      </g>
     </g>
    </g>
    <g id="text_15">
     <!-- AUROC -->
     <g transform="translate(34.3875 202.29) rotate(-90) scale(0.16 -0.16)">
      <defs>
       <path id="DejaVuSans-41" d="M 2188 4044 
L 1331 1722 
L 3047 1722 
L 2188 4044 
z
M 1831 4666 
L 2547 4666 
L 4325 0 
L 3669 0 
L 3244 1197 
L 1141 1197 
L 716 0 
L 50 0 
L 1831 4666 
z
" transform="scale(0.015625)"/>
       <path id="DejaVuSans-55" d="M 556 4666 
L 1191 4666 
L 1191 1831 
Q 1191 1081 1462 751 
Q 1734 422 2344 422 
Q 2950 422 3222 751 
Q 3494 1081 3494 1831 
L 3494 4666 
L 4128 4666 
L 4128 1753 
Q 4128 841 3676 375 
Q 3225 -91 2344 -91 
Q 1459 -91 1007 375 
Q 556 841 556 1753 
L 556 4666 
z
" transform="scale(0.015625)"/>
       <path id="DejaVuSans-52" d="M 2841 2188 
Q 3044 2119 3236 1894 
Q 3428 1669 3622 1275 
L 4263 0 
L 3584 0 
L 2988 1197 
Q 2756 1666 2539 1819 
Q 2322 1972 1947 1972 
L 1259 1972 
L 1259 0 
L 628 0 
L 628 4666 
L 2053 4666 
Q 2853 4666 3247 4331 
Q 3641 3997 3641 3322 
Q 3641 2881 3436 2590 
Q 3231 2300 2841 2188 
z
M 1259 4147 
L 1259 2491 
L 2053 2491 
Q 2509 2491 2742 2702 
Q 2975 2913 2975 3322 
Q 2975 3731 2742 3939 
Q 2509 4147 2053 4147 
L 1259 4147 
z
" transform="scale(0.015625)"/>
       <path id="DejaVuSans-4f" d="M 2522 4238 
Q 1834 4238 1429 3725 
Q 1025 3213 1025 2328 
Q 1025 1447 1429 934 
Q 1834 422 2522 422 
Q 3209 422 3611 934 
Q 4013 1447 4013 2328 
Q 4013 3213 3611 3725 
Q 3209 4238 2522 4238 
z
M 2522 4750 
Q 3503 4750 4090 4092 
Q 4678 3434 4678 2328 
Q 4678 1225 4090 567 
Q 3503 -91 2522 -91 
Q 1538 -91 948 565 
Q 359 1222 359 2328 
Q 359 3434 948 4092 
Q 1538 4750 2522 4750 
z
" transform="scale(0.015625)"/>
       <path id="DejaVuSans-43" d="M 4122 4306 
L 4122 3641 
Q 3803 3938 3442 4084 
Q 3081 4231 2675 4231 
Q 1875 4231 1450 3742 
Q 1025 3253 1025 2328 
Q 1025 1406 1450 917 
Q 1875 428 2675 428 
Q 3081 428 3442 575 
Q 3803 722 4122 1019 
L 4122 359 
Q 3791 134 3420 21 
Q 3050 -91 2638 -91 
Q 1578 -91 968 557 
Q 359 1206 359 2328 
Q 359 3453 968 4101 
Q 1578 4750 2638 4750 
Q 3056 4750 3426 4639 
Q 3797 4528 4122 4306 
z
" transform="scale(0.015625)"/>
      </defs>
      <use xlink:href="#DejaVuSans-41"/>
      <use xlink:href="#DejaVuSans-55" x="68.408203"/>
      <use xlink:href="#DejaVuSans-52" x="141.601562"/>
      <use xlink:href="#DejaVuSans-4f" x="211.083984"/>
      <use xlink:href="#DejaVuSans-43" x="289.794922"/>
     </g>
    </g>
   </g>
   <g id="patch_3">
    <path d="M 112.977391 131.073652 
L 132.386087 131.073652 
L 132.386087 106.988939 
L 112.977391 106.988939 
L 112.977391 131.073652 
L 112.977391 131.073652 
z
" clip-path="url(#paf0a5f5530)" style="fill: none; stroke: #af58ba; stroke-linejoin: miter"/>
   </g>
   <g id="line2d_15">
    <path d="M 122.681739 131.073652 
L 122.681739 143.699176 
" clip-path="url(#paf0a5f5530)" style="fill: none; stroke: #af58ba; stroke-linecap: square"/>
   </g>
   <g id="line2d_16">
    <path d="M 122.681739 106.988939 
L 122.681739 76.517854 
" clip-path="url(#paf0a5f5530)" style="fill: none; stroke: #af58ba; stroke-linecap: square"/>
   </g>
   <g id="line2d_17">
    <defs>
     <path id="m39636e9c2c" d="M 0 1.5 
C 0.397805 1.5 0.77937 1.341951 1.06066 1.06066 
C 1.341951 0.77937 1.5 0.397805 1.5 0 
C 1.5 -0.397805 1.341951 -0.77937 1.06066 -1.06066 
C 0.77937 -1.341951 0.397805 -1.5 0 -1.5 
C -0.397805 -1.5 -0.77937 -1.341951 -1.06066 -1.06066 
C -1.341951 -0.77937 -1.5 -0.397805 -1.5 0 
C -1.5 0.397805 -1.341951 0.77937 -1.06066 1.06066 
C -0.77937 1.341951 -0.397805 1.5 0 1.5 
z
" style="stroke: #000000"/>
    </defs>
    <g clip-path="url(#paf0a5f5530)">
     <use xlink:href="#m39636e9c2c" x="122.681739" y="215.388417" style="fill-opacity: 0; stroke: #000000"/>
     <use xlink:href="#m39636e9c2c" x="122.681739" y="47.52" style="fill-opacity: 0; stroke: #000000"/>
    </g>
   </g>
   <g id="patch_4">
    <path d="M 151.794783 138.386963 
L 171.203478 138.386963 
L 171.203478 107.061545 
L 151.794783 107.061545 
L 151.794783 138.386963 
L 151.794783 138.386963 
z
" clip-path="url(#paf0a5f5530)" style="fill: none; stroke: #af58ba; stroke-linejoin: miter"/>
   </g>
   <g id="line2d_18">
    <path d="M 161.49913 138.386963 
L 161.49913 143.253748 
" clip-path="url(#paf0a5f5530)" style="fill: none; stroke: #af58ba; stroke-linecap: square"/>
   </g>
   <g id="line2d_19">
    <path d="M 161.49913 107.061545 
L 161.49913 60.793564 
" clip-path="url(#paf0a5f5530)" style="fill: none; stroke: #af58ba; stroke-linecap: square"/>
   </g>
   <g id="line2d_20">
    <g clip-path="url(#paf0a5f5530)">
     <use xlink:href="#m39636e9c2c" x="161.49913" y="240.691148" style="fill-opacity: 0; stroke: #000000"/>
    </g>
   </g>
   <g id="patch_5">
    <path d="M 190.612174 132.141439 
L 210.02087 132.141439 
L 210.02087 107.4482 
L 190.612174 107.4482 
L 190.612174 132.141439 
L 190.612174 132.141439 
z
" clip-path="url(#paf0a5f5530)" style="fill: none; stroke: #af58ba; stroke-linejoin: miter"/>
   </g>
   <g id="line2d_21">
    <path d="M 200.316522 132.141439 
L 200.316522 143.253879 
" clip-path="url(#paf0a5f5530)" style="fill: none; stroke: #af58ba; stroke-linecap: square"/>
   </g>
   <g id="line2d_22">
    <path d="M 200.316522 107.4482 
L 200.316522 71.058454 
" clip-path="url(#paf0a5f5530)" style="fill: none; stroke: #af58ba; stroke-linecap: square"/>
   </g>
   <g id="line2d_23">
    <g clip-path="url(#paf0a5f5530)">
     <use xlink:href="#m39636e9c2c" x="200.316522" y="252.709946" style="fill-opacity: 0; stroke: #000000"/>
    </g>
   </g>
   <g id="patch_6">
    <path d="M 229.429565 138.382053 
L 248.838261 138.382053 
L 248.838261 113.949215 
L 229.429565 113.949215 
L 229.429565 138.382053 
L 229.429565 138.382053 
z
" clip-path="url(#paf0a5f5530)" style="fill: none; stroke: #af58ba; stroke-linejoin: miter"/>
   </g>
   <g id="line2d_24">
    <path d="M 239.133913 138.382053 
L 239.133913 149.764033 
" clip-path="url(#paf0a5f5530)" style="fill: none; stroke: #af58ba; stroke-linecap: square"/>
   </g>
   <g id="line2d_25">
    <path d="M 239.133913 113.949215 
L 239.133913 113.949215 
" clip-path="url(#paf0a5f5530)" style="fill: none; stroke: #af58ba; stroke-linecap: square"/>
   </g>
   <g id="line2d_26">
    <g clip-path="url(#paf0a5f5530)">
     <use xlink:href="#m39636e9c2c" x="239.133913" y="299.52" style="fill-opacity: 0; stroke: #000000"/>
     <use xlink:href="#m39636e9c2c" x="239.133913" y="54.776215" style="fill-opacity: 0; stroke: #000000"/>
     <use xlink:href="#m39636e9c2c" x="239.133913" y="75.65462" style="fill-opacity: 0; stroke: #000000"/>
     <use xlink:href="#m39636e9c2c" x="239.133913" y="74.155462" style="fill-opacity: 0; stroke: #000000"/>
    </g>
   </g>
   <g id="patch_7">
    <path d="M 268.246957 134.229733 
L 287.655652 134.229733 
L 287.655652 107.692029 
L 268.246957 107.692029 
L 268.246957 134.229733 
L 268.246957 134.229733 
z
" clip-path="url(#paf0a5f5530)" style="fill: none; stroke: #af58ba; stroke-linejoin: miter"/>
   </g>
   <g id="line2d_27">
    <path d="M 277.951304 134.229733 
L 277.951304 139.568579 
" clip-path="url(#paf0a5f5530)" style="fill: none; stroke: #af58ba; stroke-linecap: square"/>
   </g>
   <g id="line2d_28">
    <path d="M 277.951304 107.692029 
L 277.951304 76.113688 
" clip-path="url(#paf0a5f5530)" style="fill: none; stroke: #af58ba; stroke-linecap: square"/>
   </g>
   <g id="line2d_29">
    <g clip-path="url(#paf0a5f5530)">
     <use xlink:href="#m39636e9c2c" x="277.951304" y="251.444809" style="fill-opacity: 0; stroke: #000000"/>
     <use xlink:href="#m39636e9c2c" x="277.951304" y="64.510162" style="fill-opacity: 0; stroke: #000000"/>
    </g>
   </g>
   <g id="patch_8">
    <path d="M 307.064348 136.766963 
L 326.473043 136.766963 
L 326.473043 106.852991 
L 307.064348 106.852991 
L 307.064348 136.766963 
L 307.064348 136.766963 
z
" clip-path="url(#paf0a5f5530)" style="fill: none; stroke: #af58ba; stroke-linejoin: miter"/>
   </g>
   <g id="line2d_30">
    <path d="M 316.768696 136.766963 
L 316.768696 151.740622 
" clip-path="url(#paf0a5f5530)" style="fill: none; stroke: #af58ba; stroke-linecap: square"/>
   </g>
   <g id="line2d_31">
    <path d="M 316.768696 106.852991 
L 316.768696 66.10299 
" clip-path="url(#paf0a5f5530)" style="fill: none; stroke: #af58ba; stroke-linecap: square"/>
   </g>
   <g id="line2d_32">
    <g clip-path="url(#paf0a5f5530)">
     <use xlink:href="#m39636e9c2c" x="316.768696" y="259.668197" style="fill-opacity: 0; stroke: #000000"/>
    </g>
   </g>
   <g id="patch_9">
    <path d="M 345.881739 134.766875 
L 365.290435 134.766875 
L 365.290435 109.77207 
L 345.881739 109.77207 
L 345.881739 134.766875 
L 345.881739 134.766875 
z
" clip-path="url(#paf0a5f5530)" style="fill: none; stroke: #af58ba; stroke-linejoin: miter"/>
   </g>
   <g id="line2d_33">
    <path d="M 355.586087 134.766875 
L 355.586087 145.733164 
" clip-path="url(#paf0a5f5530)" style="fill: none; stroke: #af58ba; stroke-linecap: square"/>
   </g>
   <g id="line2d_34">
    <path d="M 355.586087 109.77207 
L 355.586087 76.835255 
" clip-path="url(#paf0a5f5530)" style="fill: none; stroke: #af58ba; stroke-linecap: square"/>
   </g>
   <g id="line2d_35">
    <g clip-path="url(#paf0a5f5530)">
     <use xlink:href="#m39636e9c2c" x="355.586087" y="260.300766" style="fill-opacity: 0; stroke: #000000"/>
     <use xlink:href="#m39636e9c2c" x="355.586087" y="54.776215" style="fill-opacity: 0; stroke: #000000"/>
    </g>
   </g>
   <g id="patch_10">
    <path d="M 384.69913 136.537517 
L 404.107826 136.537517 
L 404.107826 110.047404 
L 384.69913 110.047404 
L 384.69913 136.537517 
L 384.69913 136.537517 
z
" clip-path="url(#paf0a5f5530)" style="fill: none; stroke: #af58ba; stroke-linejoin: miter"/>
   </g>
   <g id="line2d_36">
    <path d="M 394.403478 136.537517 
L 394.403478 147.484204 
" clip-path="url(#paf0a5f5530)" style="fill: none; stroke: #af58ba; stroke-linecap: square"/>
   </g>
   <g id="line2d_37">
    <path d="M 394.403478 110.047404 
L 394.403478 71.589397 
" clip-path="url(#paf0a5f5530)" style="fill: none; stroke: #af58ba; stroke-linecap: square"/>
   </g>
   <g id="line2d_38">
    <g clip-path="url(#paf0a5f5530)">
     <use xlink:href="#m39636e9c2c" x="394.403478" y="255.240219" style="fill-opacity: 0; stroke: #000000"/>
    </g>
   </g>
   <g id="patch_11">
    <path d="M 423.516522 138.11913 
L 442.925217 138.11913 
L 442.925217 109.076134 
L 423.516522 109.076134 
L 423.516522 138.11913 
L 423.516522 138.11913 
z
" clip-path="url(#paf0a5f5530)" style="fill: none; stroke: #af58ba; stroke-linejoin: miter"/>
   </g>
   <g id="line2d_39">
    <path d="M 433.22087 138.11913 
L 433.22087 142.398955 
" clip-path="url(#paf0a5f5530)" style="fill: none; stroke: #af58ba; stroke-linecap: square"/>
   </g>
   <g id="line2d_40">
    <path d="M 433.22087 109.076134 
L 433.22087 74.193196 
" clip-path="url(#paf0a5f5530)" style="fill: none; stroke: #af58ba; stroke-linecap: square"/>
   </g>
   <g id="line2d_41">
    <g clip-path="url(#paf0a5f5530)">
     <use xlink:href="#m39636e9c2c" x="433.22087" y="219.183826" style="fill-opacity: 0; stroke: #000000"/>
     <use xlink:href="#m39636e9c2c" x="433.22087" y="51.413579" style="fill-opacity: 0; stroke: #000000"/>
    </g>
   </g>
   <g id="patch_12">
    <path d="M 462.333913 132.127728 
L 481.742609 132.127728 
L 481.742609 111.673343 
L 462.333913 111.673343 
L 462.333913 132.127728 
L 462.333913 132.127728 
z
" clip-path="url(#paf0a5f5530)" style="fill: none; stroke: #af58ba; stroke-linejoin: miter"/>
   </g>
   <g id="line2d_42">
    <path d="M 472.038261 132.127728 
L 472.038261 142.493162 
" clip-path="url(#paf0a5f5530)" style="fill: none; stroke: #af58ba; stroke-linecap: square"/>
   </g>
   <g id="line2d_43">
    <path d="M 472.038261 111.673343 
L 472.038261 81.981682 
" clip-path="url(#paf0a5f5530)" style="fill: none; stroke: #af58ba; stroke-linecap: square"/>
   </g>
   <g id="line2d_44">
    <g clip-path="url(#paf0a5f5530)">
     <use xlink:href="#m39636e9c2c" x="472.038261" y="255.240219" style="fill-opacity: 0; stroke: #000000"/>
     <use xlink:href="#m39636e9c2c" x="472.038261" y="57.607909" style="fill-opacity: 0; stroke: #000000"/>
     <use xlink:href="#m39636e9c2c" x="472.038261" y="78.317928" style="fill-opacity: 0; stroke: #000000"/>
    </g>
   </g>
   <g id="line2d_45">
    <path d="M 122.681739 117.671014 
L 161.49913 122.780363 
L 200.316522 122.709116 
L 239.133913 125.949723 
L 277.951304 123.194829 
L 316.768696 121.228087 
L 355.586087 122.36063 
L 394.403478 123.605063 
L 433.22087 122.754236 
L 472.038261 123.410339 
" clip-path="url(#paf0a5f5530)" style="fill: none; stroke: #f28522; stroke-linecap: square"/>
    <defs>
     <path id="m86db40445b" d="M 0 1 
C 0.265203 1 0.51958 0.894634 0.707107 0.707107 
C 0.894634 0.51958 1 0.265203 1 0 
C 1 -0.265203 0.894634 -0.51958 0.707107 -0.707107 
C 0.51958 -0.894634 0.265203 -1 0 -1 
C -0.265203 -1 -0.51958 -0.894634 -0.707107 -0.707107 
C -0.894634 -0.51958 -1 -0.265203 -1 0 
C -1 0.265203 -0.894634 0.51958 -0.707107 0.707107 
C -0.51958 0.894634 -0.265203 1 0 1 
z
" style="stroke: #f28522"/>
    </defs>
    <g clip-path="url(#paf0a5f5530)">
     <use xlink:href="#m86db40445b" x="122.681739" y="117.671014" style="fill: #f28522; stroke: #f28522"/>
     <use xlink:href="#m86db40445b" x="161.49913" y="122.780363" style="fill: #f28522; stroke: #f28522"/>
     <use xlink:href="#m86db40445b" x="200.316522" y="122.709116" style="fill: #f28522; stroke: #f28522"/>
     <use xlink:href="#m86db40445b" x="239.133913" y="125.949723" style="fill: #f28522; stroke: #f28522"/>
     <use xlink:href="#m86db40445b" x="277.951304" y="123.194829" style="fill: #f28522; stroke: #f28522"/>
     <use xlink:href="#m86db40445b" x="316.768696" y="121.228087" style="fill: #f28522; stroke: #f28522"/>
     <use xlink:href="#m86db40445b" x="355.586087" y="122.36063" style="fill: #f28522; stroke: #f28522"/>
     <use xlink:href="#m86db40445b" x="394.403478" y="123.605063" style="fill: #f28522; stroke: #f28522"/>
     <use xlink:href="#m86db40445b" x="433.22087" y="122.754236" style="fill: #f28522; stroke: #f28522"/>
     <use xlink:href="#m86db40445b" x="472.038261" y="123.410339" style="fill: #f28522; stroke: #f28522"/>
    </g>
   </g>
   <g id="line2d_46">
    <path d="M 112.977391 117.671014 
L 132.386087 117.671014 
" clip-path="url(#paf0a5f5530)" style="fill: none; stroke: #af58ba; stroke-linecap: square"/>
   </g>
   <g id="line2d_47">
    <path d="M 151.794783 122.780363 
L 171.203478 122.780363 
" clip-path="url(#paf0a5f5530)" style="fill: none; stroke: #af58ba; stroke-linecap: square"/>
   </g>
   <g id="line2d_48">
    <path d="M 190.612174 122.709116 
L 210.02087 122.709116 
" clip-path="url(#paf0a5f5530)" style="fill: none; stroke: #af58ba; stroke-linecap: square"/>
   </g>
   <g id="line2d_49">
    <path d="M 229.429565 125.949723 
L 248.838261 125.949723 
" clip-path="url(#paf0a5f5530)" style="fill: none; stroke: #af58ba; stroke-linecap: square"/>
   </g>
   <g id="line2d_50">
    <path d="M 268.246957 123.194829 
L 287.655652 123.194829 
" clip-path="url(#paf0a5f5530)" style="fill: none; stroke: #af58ba; stroke-linecap: square"/>
   </g>
   <g id="line2d_51">
    <path d="M 307.064348 121.228087 
L 326.473043 121.228087 
" clip-path="url(#paf0a5f5530)" style="fill: none; stroke: #af58ba; stroke-linecap: square"/>
   </g>
   <g id="line2d_52">
    <path d="M 345.881739 122.36063 
L 365.290435 122.36063 
" clip-path="url(#paf0a5f5530)" style="fill: none; stroke: #af58ba; stroke-linecap: square"/>
   </g>
   <g id="line2d_53">
    <path d="M 384.69913 123.605063 
L 404.107826 123.605063 
" clip-path="url(#paf0a5f5530)" style="fill: none; stroke: #af58ba; stroke-linecap: square"/>
   </g>
   <g id="line2d_54">
    <path d="M 423.516522 122.754236 
L 442.925217 122.754236 
" clip-path="url(#paf0a5f5530)" style="fill: none; stroke: #af58ba; stroke-linecap: square"/>
   </g>
   <g id="line2d_55">
    <path d="M 462.333913 123.410339 
L 481.742609 123.410339 
" clip-path="url(#paf0a5f5530)" style="fill: none; stroke: #af58ba; stroke-linecap: square"/>
   </g>
   <g id="patch_13">
    <path d="M 74.16 312.12 
L 74.16 34.92 
" style="fill: none; stroke: #000000; stroke-width: 0.8; stroke-linejoin: miter; stroke-linecap: square"/>
   </g>
   <g id="patch_14">
    <path d="M 520.56 312.12 
L 520.56 34.92 
" style="fill: none; stroke: #000000; stroke-width: 0.8; stroke-linejoin: miter; stroke-linecap: square"/>
   </g>
   <g id="patch_15">
    <path d="M 74.16 312.12 
L 520.56 312.12 
" style="fill: none; stroke: #000000; stroke-width: 0.8; stroke-linejoin: miter; stroke-linecap: square"/>
   </g>
   <g id="patch_16">
    <path d="M 74.16 34.92 
L 520.56 34.92 
" style="fill: none; stroke: #000000; stroke-width: 0.8; stroke-linejoin: miter; stroke-linecap: square"/>
   </g>
   <g id="text_16">
    <!-- C -->
    <g transform="translate(7.2 25.43625) scale(0.24 -0.24)">
     <defs>
      <path id="DejaVuSans-Bold-43" d="M 4288 256 
Q 3956 84 3597 -3 
Q 3238 -91 2847 -91 
Q 1681 -91 1000 561 
Q 319 1213 319 2328 
Q 319 3447 1000 4098 
Q 1681 4750 2847 4750 
Q 3238 4750 3597 4662 
Q 3956 4575 4288 4403 
L 4288 3438 
Q 3953 3666 3628 3772 
Q 3303 3878 2944 3878 
Q 2300 3878 1931 3465 
Q 1563 3053 1563 2328 
Q 1563 1606 1931 1193 
Q 2300 781 2944 781 
Q 3303 781 3628 887 
Q 3953 994 4288 1222 
L 4288 256 
z
" transform="scale(0.015625)"/>
     </defs>
     <use xlink:href="#DejaVuSans-Bold-43"/>
    </g>
   </g>
   <g id="text_17">
    <!-- Edge decay rate -->
    <g transform="translate(218.751 361.56) scale(0.192 -0.192)">
     <defs>
      <path id="DejaVuSans-45" d="M 628 4666 
L 3578 4666 
L 3578 4134 
L 1259 4134 
L 1259 2753 
L 3481 2753 
L 3481 2222 
L 1259 2222 
L 1259 531 
L 3634 531 
L 3634 0 
L 628 0 
L 628 4666 
z
" transform="scale(0.015625)"/>
      <path id="DejaVuSans-64" d="M 2906 2969 
L 2906 4863 
L 3481 4863 
L 3481 0 
L 2906 0 
L 2906 525 
Q 2725 213 2448 61 
Q 2172 -91 1784 -91 
Q 1150 -91 751 415 
Q 353 922 353 1747 
Q 353 2572 751 3078 
Q 1150 3584 1784 3584 
Q 2172 3584 2448 3432 
Q 2725 3281 2906 2969 
z
M 947 1747 
Q 947 1113 1208 752 
Q 1469 391 1925 391 
Q 2381 391 2643 752 
Q 2906 1113 2906 1747 
Q 2906 2381 2643 2742 
Q 2381 3103 1925 3103 
Q 1469 3103 1208 2742 
Q 947 2381 947 1747 
z
" transform="scale(0.015625)"/>
      <path id="DejaVuSans-67" d="M 2906 1791 
Q 2906 2416 2648 2759 
Q 2391 3103 1925 3103 
Q 1463 3103 1205 2759 
Q 947 2416 947 1791 
Q 947 1169 1205 825 
Q 1463 481 1925 481 
Q 2391 481 2648 825 
Q 2906 1169 2906 1791 
z
M 3481 434 
Q 3481 -459 3084 -895 
Q 2688 -1331 1869 -1331 
Q 1566 -1331 1297 -1286 
Q 1028 -1241 775 -1147 
L 775 -588 
Q 1028 -725 1275 -790 
Q 1522 -856 1778 -856 
Q 2344 -856 2625 -561 
Q 2906 -266 2906 331 
L 2906 616 
Q 2728 306 2450 153 
Q 2172 0 1784 0 
Q 1141 0 747 490 
Q 353 981 353 1791 
Q 353 2603 747 3093 
Q 1141 3584 1784 3584 
Q 2172 3584 2450 3431 
Q 2728 3278 2906 2969 
L 2906 3500 
L 3481 3500 
L 3481 434 
z
" transform="scale(0.015625)"/>
      <path id="DejaVuSans-65" d="M 3597 1894 
L 3597 1613 
L 953 1613 
Q 991 1019 1311 708 
Q 1631 397 2203 397 
Q 2534 397 2845 478 
Q 3156 559 3463 722 
L 3463 178 
Q 3153 47 2828 -22 
Q 2503 -91 2169 -91 
Q 1331 -91 842 396 
Q 353 884 353 1716 
Q 353 2575 817 3079 
Q 1281 3584 2069 3584 
Q 2775 3584 3186 3129 
Q 3597 2675 3597 1894 
z
M 3022 2063 
Q 3016 2534 2758 2815 
Q 2500 3097 2075 3097 
Q 1594 3097 1305 2825 
Q 1016 2553 972 2059 
L 3022 2063 
z
" transform="scale(0.015625)"/>
      <path id="DejaVuSans-20" transform="scale(0.015625)"/>
      <path id="DejaVuSans-63" d="M 3122 3366 
L 3122 2828 
Q 2878 2963 2633 3030 
Q 2388 3097 2138 3097 
Q 1578 3097 1268 2742 
Q 959 2388 959 1747 
Q 959 1106 1268 751 
Q 1578 397 2138 397 
Q 2388 397 2633 464 
Q 2878 531 3122 666 
L 3122 134 
Q 2881 22 2623 -34 
Q 2366 -91 2075 -91 
Q 1284 -91 818 406 
Q 353 903 353 1747 
Q 353 2603 823 3093 
Q 1294 3584 2113 3584 
Q 2378 3584 2631 3529 
Q 2884 3475 3122 3366 
z
" transform="scale(0.015625)"/>
      <path id="DejaVuSans-61" d="M 2194 1759 
Q 1497 1759 1228 1600 
Q 959 1441 959 1056 
Q 959 750 1161 570 
Q 1363 391 1709 391 
Q 2188 391 2477 730 
Q 2766 1069 2766 1631 
L 2766 1759 
L 2194 1759 
z
M 3341 1997 
L 3341 0 
L 2766 0 
L 2766 531 
Q 2569 213 2275 61 
Q 1981 -91 1556 -91 
Q 1019 -91 701 211 
Q 384 513 384 1019 
Q 384 1609 779 1909 
Q 1175 2209 1959 2209 
L 2766 2209 
L 2766 2266 
Q 2766 2663 2505 2880 
Q 2244 3097 1772 3097 
Q 1472 3097 1187 3025 
Q 903 2953 641 2809 
L 641 3341 
Q 956 3463 1253 3523 
Q 1550 3584 1831 3584 
Q 2591 3584 2966 3190 
Q 3341 2797 3341 1997 
z
" transform="scale(0.015625)"/>
      <path id="DejaVuSans-79" d="M 2059 -325 
Q 1816 -950 1584 -1140 
Q 1353 -1331 966 -1331 
L 506 -1331 
L 506 -850 
L 844 -850 
Q 1081 -850 1212 -737 
Q 1344 -625 1503 -206 
L 1606 56 
L 191 3500 
L 800 3500 
L 1894 763 
L 2988 3500 
L 3597 3500 
L 2059 -325 
z
" transform="scale(0.015625)"/>
      <path id="DejaVuSans-72" d="M 2631 2963 
Q 2534 3019 2420 3045 
Q 2306 3072 2169 3072 
Q 1681 3072 1420 2755 
Q 1159 2438 1159 1844 
L 1159 0 
L 581 0 
L 581 3500 
L 1159 3500 
L 1159 2956 
Q 1341 3275 1631 3429 
Q 1922 3584 2338 3584 
Q 2397 3584 2469 3576 
Q 2541 3569 2628 3553 
L 2631 2963 
z
" transform="scale(0.015625)"/>
      <path id="DejaVuSans-74" d="M 1172 4494 
L 1172 3500 
L 2356 3500 
L 2356 3053 
L 1172 3053 
L 1172 1153 
Q 1172 725 1289 603 
Q 1406 481 1766 481 
L 2356 481 
L 2356 0 
L 1766 0 
Q 1100 0 847 248 
Q 594 497 594 1153 
L 594 3053 
L 172 3053 
L 172 3500 
L 594 3500 
L 594 4494 
L 1172 4494 
z
" transform="scale(0.015625)"/>
     </defs>
     <use xlink:href="#DejaVuSans-45"/>
     <use xlink:href="#DejaVuSans-64" x="63.183594"/>
     <use xlink:href="#DejaVuSans-67" x="126.660156"/>
     <use xlink:href="#DejaVuSans-65" x="190.136719"/>
     <use xlink:href="#DejaVuSans-20" x="251.660156"/>
     <use xlink:href="#DejaVuSans-64" x="283.447266"/>
     <use xlink:href="#DejaVuSans-65" x="346.923828"/>
     <use xlink:href="#DejaVuSans-63" x="408.447266"/>
     <use xlink:href="#DejaVuSans-61" x="463.427734"/>
     <use xlink:href="#DejaVuSans-79" x="524.707031"/>
     <use xlink:href="#DejaVuSans-20" x="583.886719"/>
     <use xlink:href="#DejaVuSans-72" x="615.673828"/>
     <use xlink:href="#DejaVuSans-61" x="656.787109"/>
     <use xlink:href="#DejaVuSans-74" x="718.066406"/>
     <use xlink:href="#DejaVuSans-65" x="757.275391"/>
    </g>
   </g>
  </g>
 </g>
 <defs>
  <clipPath id="paf0a5f5530">
   <rect x="74.16" y="34.92" width="446.4" height="277.2"/>
  </clipPath>
 </defs>
</svg>
